<mxfile host="Electron" agent="Mozilla/5.0 (Windows NT 10.0; Win64; x64) AppleWebKit/537.36 (KHTML, like Gecko) draw.io/24.7.8 Chrome/128.0.6613.36 Electron/32.0.1 Safari/537.36" version="24.7.8" pages="2">
  <diagram name="Block diagram" id="FRn-y7HaDBWAAsy4FDFU">
    <mxGraphModel dx="1434" dy="2053" grid="1" gridSize="10" guides="1" tooltips="1" connect="1" arrows="1" fold="1" page="1" pageScale="1" pageWidth="827" pageHeight="1169" math="0" shadow="0">
      <root>
        <mxCell id="0" />
        <mxCell id="1" parent="0" />
        <mxCell id="EClyNgpZT3kYvuIJdLgy-42" value="&lt;div&gt;&lt;br&gt;&lt;/div&gt;&lt;div&gt;&lt;br&gt;&lt;/div&gt;&lt;div&gt;&lt;br&gt;&lt;/div&gt;&lt;div&gt;&lt;br&gt;&lt;/div&gt;&lt;div&gt;&lt;br&gt;&lt;/div&gt;&lt;div&gt;&lt;br&gt;&lt;/div&gt;&lt;div&gt;&lt;br&gt;&lt;/div&gt;&lt;div&gt;&lt;br&gt;&lt;/div&gt;&lt;div&gt;&lt;br&gt;&lt;/div&gt;&lt;div&gt;&lt;br&gt;&lt;/div&gt;PC" style="rounded=0;whiteSpace=wrap;html=1;direction=north;fontSize=22;fillColor=#ffe6cc;strokeColor=#d79b00;" parent="1" vertex="1">
          <mxGeometry x="60" y="-920" width="180" height="310" as="geometry" />
        </mxCell>
        <mxCell id="EClyNgpZT3kYvuIJdLgy-23" value="MCU / DSP&lt;div&gt;&lt;br&gt;&lt;/div&gt;&lt;div&gt;&lt;br&gt;&lt;/div&gt;&lt;div&gt;&lt;br&gt;&lt;/div&gt;&lt;div&gt;&lt;br&gt;&lt;/div&gt;&lt;div&gt;&lt;br&gt;&lt;/div&gt;&lt;div&gt;&lt;br&gt;&lt;/div&gt;&lt;div&gt;&lt;br&gt;&lt;/div&gt;&lt;div&gt;&lt;br&gt;&lt;/div&gt;&lt;div&gt;&lt;br&gt;&lt;/div&gt;&lt;div&gt;&lt;br&gt;&lt;/div&gt;&lt;div&gt;&lt;br&gt;&lt;/div&gt;&lt;div&gt;&lt;br&gt;&lt;/div&gt;&lt;div&gt;&lt;br&gt;&lt;/div&gt;&lt;div&gt;&lt;br&gt;&lt;/div&gt;&lt;div&gt;&lt;br&gt;&lt;/div&gt;&lt;div&gt;&lt;br&gt;&lt;/div&gt;&lt;div&gt;&lt;br&gt;&lt;/div&gt;&lt;div&gt;&lt;br&gt;&lt;/div&gt;&lt;div&gt;&lt;br&gt;&lt;/div&gt;&lt;div&gt;&lt;br&gt;&lt;/div&gt;" style="rounded=0;whiteSpace=wrap;html=1;direction=north;fontSize=22;fillColor=#cdeb8b;strokeColor=#36393d;" parent="1" vertex="1">
          <mxGeometry x="390" y="-1130" width="330" height="570" as="geometry" />
        </mxCell>
        <mxCell id="EClyNgpZT3kYvuIJdLgy-38" value="&lt;div&gt;&lt;br&gt;&lt;/div&gt;&lt;div&gt;&lt;br&gt;&lt;/div&gt;&lt;div&gt;&lt;br&gt;&lt;/div&gt;&lt;div&gt;&lt;br&gt;&lt;/div&gt;&lt;div&gt;&lt;br&gt;&lt;/div&gt;&lt;div&gt;&lt;br&gt;&lt;/div&gt;&lt;div&gt;&lt;br&gt;&lt;/div&gt;&lt;div&gt;&lt;br&gt;&lt;/div&gt;&lt;div&gt;&lt;br&gt;&lt;/div&gt;&lt;div&gt;&lt;br&gt;&lt;/div&gt;&lt;div&gt;&lt;br&gt;&lt;/div&gt;&lt;div&gt;&lt;br&gt;&lt;/div&gt;&lt;div&gt;&lt;br&gt;&lt;/div&gt;&lt;div&gt;&lt;br&gt;&lt;/div&gt;&lt;div&gt;&lt;br&gt;&lt;/div&gt;&lt;div&gt;&lt;br&gt;&lt;/div&gt;&lt;div&gt;&lt;br&gt;&lt;/div&gt;Embedded program" style="rounded=0;whiteSpace=wrap;html=1;fontSize=18;fillColor=#d5e8d4;strokeColor=#82b366;" parent="1" vertex="1">
          <mxGeometry x="410" y="-970" width="300" height="400" as="geometry" />
        </mxCell>
        <mxCell id="EClyNgpZT3kYvuIJdLgy-37" value="&lt;div&gt;&lt;br&gt;&lt;/div&gt;&lt;div&gt;&lt;br&gt;&lt;/div&gt;&lt;div&gt;&lt;br&gt;&lt;/div&gt;&lt;div&gt;&lt;br&gt;&lt;/div&gt;&lt;div&gt;&lt;br&gt;&lt;/div&gt;&lt;div&gt;&lt;br&gt;&lt;/div&gt;&lt;div&gt;&lt;br&gt;&lt;/div&gt;&lt;div&gt;&lt;br&gt;&lt;/div&gt;&lt;div&gt;&lt;br&gt;&lt;/div&gt;EasyUART GUI" style="rounded=0;whiteSpace=wrap;html=1;fontSize=18;fillColor=#ffff88;strokeColor=#36393d;fontStyle=1" parent="1" vertex="1">
          <mxGeometry x="80" y="-890" width="140" height="240" as="geometry" />
        </mxCell>
        <mxCell id="EClyNgpZT3kYvuIJdLgy-1" value="&lt;div&gt;Other peripherals&lt;/div&gt;" style="rounded=0;whiteSpace=wrap;html=1;direction=north;fontSize=22;fillColor=#e1d5e7;strokeColor=#9673a6;" parent="1" vertex="1">
          <mxGeometry x="493.37" y="-1080" width="200" height="80" as="geometry" />
        </mxCell>
        <mxCell id="EClyNgpZT3kYvuIJdLgy-31" style="edgeStyle=orthogonalEdgeStyle;rounded=0;orthogonalLoop=1;jettySize=auto;html=1;exitX=0;exitY=0.5;exitDx=0;exitDy=0;entryX=1;entryY=0.5;entryDx=0;entryDy=0;" parent="1" source="EClyNgpZT3kYvuIJdLgy-3" target="EClyNgpZT3kYvuIJdLgy-24" edge="1">
          <mxGeometry relative="1" as="geometry" />
        </mxCell>
        <mxCell id="EClyNgpZT3kYvuIJdLgy-3" value="RTOS or Baremetal" style="rounded=0;whiteSpace=wrap;html=1;direction=south;fontSize=18;fillColor=#e1d5e7;strokeColor=#9673a6;" parent="1" vertex="1">
          <mxGeometry x="493.37" y="-890" width="200" height="40" as="geometry" />
        </mxCell>
        <mxCell id="EClyNgpZT3kYvuIJdLgy-33" style="edgeStyle=orthogonalEdgeStyle;rounded=0;orthogonalLoop=1;jettySize=auto;html=1;entryX=1;entryY=0.5;entryDx=0;entryDy=0;" parent="1" source="EClyNgpZT3kYvuIJdLgy-4" target="EClyNgpZT3kYvuIJdLgy-3" edge="1">
          <mxGeometry relative="1" as="geometry" />
        </mxCell>
        <mxCell id="EClyNgpZT3kYvuIJdLgy-4" value="Application" style="rounded=0;whiteSpace=wrap;html=1;direction=south;fontSize=18;fillColor=#dae8fc;strokeColor=#6c8ebf;" parent="1" vertex="1">
          <mxGeometry x="493.37" y="-820" width="200" height="80" as="geometry" />
        </mxCell>
        <mxCell id="EClyNgpZT3kYvuIJdLgy-35" style="edgeStyle=orthogonalEdgeStyle;rounded=0;orthogonalLoop=1;jettySize=auto;html=1;exitX=0;exitY=0.5;exitDx=0;exitDy=0;entryX=1;entryY=0.5;entryDx=0;entryDy=0;endArrow=classic;endFill=1;startArrow=classic;startFill=1;" parent="1" source="EClyNgpZT3kYvuIJdLgy-5" target="EClyNgpZT3kYvuIJdLgy-6" edge="1">
          <mxGeometry relative="1" as="geometry" />
        </mxCell>
        <mxCell id="EClyNgpZT3kYvuIJdLgy-5" value="UART Peripheral" style="rounded=0;whiteSpace=wrap;html=1;fontSize=12;fillColor=#e1d5e7;strokeColor=#9673a6;" parent="1" vertex="1">
          <mxGeometry x="423.37" y="-1080" width="60" height="80" as="geometry" />
        </mxCell>
        <mxCell id="EClyNgpZT3kYvuIJdLgy-6" value="UART to USB (e.g. CH340)" style="rounded=0;whiteSpace=wrap;html=1;fontSize=18;fillColor=#f8cecc;strokeColor=#b85450;" parent="1" vertex="1">
          <mxGeometry x="90" y="-1080" width="120" height="80" as="geometry" />
        </mxCell>
        <mxCell id="EClyNgpZT3kYvuIJdLgy-7" value="COM X" style="rounded=0;whiteSpace=wrap;html=1;fontSize=18;fillColor=#ffe6cc;strokeColor=#d79b00;" parent="1" vertex="1">
          <mxGeometry x="90" y="-920" width="120" height="30" as="geometry" />
        </mxCell>
        <mxCell id="EClyNgpZT3kYvuIJdLgy-8" value="EasyUART Interface" style="rounded=0;whiteSpace=wrap;html=1;fontSize=18;fillColor=#ffff88;strokeColor=#36393d;" parent="1" vertex="1">
          <mxGeometry x="90" y="-890" width="120" height="80" as="geometry" />
        </mxCell>
        <mxCell id="EClyNgpZT3kYvuIJdLgy-9" value="EasyUART Config Tool" style="rounded=0;whiteSpace=wrap;html=1;fontSize=18;fillColor=#ffff88;strokeColor=#36393d;" parent="1" vertex="1">
          <mxGeometry x="90" y="-770" width="120" height="80" as="geometry" />
        </mxCell>
        <mxCell id="EClyNgpZT3kYvuIJdLgy-11" style="edgeStyle=orthogonalEdgeStyle;rounded=0;orthogonalLoop=1;exitX=0;exitY=0.5;exitDx=0;exitDy=0;entryX=0.5;entryY=1;entryDx=0;entryDy=0;endArrow=classic;endFill=1;startArrow=classic;startFill=1;" parent="1" source="EClyNgpZT3kYvuIJdLgy-2" target="EClyNgpZT3kYvuIJdLgy-5" edge="1">
          <mxGeometry relative="1" as="geometry" />
        </mxCell>
        <mxCell id="EClyNgpZT3kYvuIJdLgy-15" style="edgeStyle=orthogonalEdgeStyle;rounded=0;orthogonalLoop=1;exitX=0.5;exitY=1;exitDx=0;exitDy=0;entryX=0.5;entryY=0;entryDx=0;entryDy=0;endArrow=classic;endFill=1;startArrow=classic;startFill=1;" parent="1" source="EClyNgpZT3kYvuIJdLgy-6" target="EClyNgpZT3kYvuIJdLgy-7" edge="1">
          <mxGeometry relative="1" as="geometry" />
        </mxCell>
        <mxCell id="EClyNgpZT3kYvuIJdLgy-17" style="edgeStyle=orthogonalEdgeStyle;rounded=0;orthogonalLoop=1;exitX=0.5;exitY=1;exitDx=0;exitDy=0;entryX=0.5;entryY=0;entryDx=0;entryDy=0;startArrow=classic;startFill=1;endArrow=none;endFill=0;" parent="1" source="EClyNgpZT3kYvuIJdLgy-8" target="EClyNgpZT3kYvuIJdLgy-9" edge="1">
          <mxGeometry relative="1" as="geometry" />
        </mxCell>
        <mxCell id="EClyNgpZT3kYvuIJdLgy-19" style="shape=line;" parent="1" source="EClyNgpZT3kYvuIJdLgy-2" edge="1">
          <mxGeometry relative="1" as="geometry">
            <mxPoint x="99.53488372093034" y="-630" as="targetPoint" />
          </mxGeometry>
        </mxCell>
        <mxCell id="EClyNgpZT3kYvuIJdLgy-22" value="" style="shape=line;" parent="1" source="EClyNgpZT3kYvuIJdLgy-1" target="EClyNgpZT3kYvuIJdLgy-2" edge="1">
          <mxGeometry relative="1" as="geometry">
            <mxPoint x="544.37" y="-960" as="sourcePoint" />
            <mxPoint x="382.90488372093034" y="-630" as="targetPoint" />
          </mxGeometry>
        </mxCell>
        <mxCell id="EClyNgpZT3kYvuIJdLgy-2" value="UART Driver" style="rounded=0;whiteSpace=wrap;html=1;direction=south;fontSize=16;fillColor=#e1d5e7;strokeColor=#9673a6;" parent="1" vertex="1">
          <mxGeometry x="423.37" y="-960" width="60" height="40" as="geometry" />
        </mxCell>
        <mxCell id="EClyNgpZT3kYvuIJdLgy-32" style="edgeStyle=orthogonalEdgeStyle;rounded=0;orthogonalLoop=1;jettySize=auto;html=1;exitX=0;exitY=0.5;exitDx=0;exitDy=0;entryX=0;entryY=0.5;entryDx=0;entryDy=0;" parent="1" source="EClyNgpZT3kYvuIJdLgy-24" target="EClyNgpZT3kYvuIJdLgy-1" edge="1">
          <mxGeometry relative="1" as="geometry" />
        </mxCell>
        <mxCell id="EClyNgpZT3kYvuIJdLgy-24" value="Other drivers / HAL" style="rounded=0;whiteSpace=wrap;html=1;direction=south;fontSize=18;fillColor=#e1d5e7;strokeColor=#9673a6;" parent="1" vertex="1">
          <mxGeometry x="493.37" y="-960" width="200" height="40" as="geometry" />
        </mxCell>
        <mxCell id="EClyNgpZT3kYvuIJdLgy-30" style="edgeStyle=orthogonalEdgeStyle;rounded=0;orthogonalLoop=1;jettySize=auto;html=1;exitX=1.007;exitY=0.11;exitDx=0;exitDy=0;exitPerimeter=0;entryX=1;entryY=0.5;entryDx=0;entryDy=0;endArrow=classic;endFill=1;startArrow=classic;startFill=1;" parent="1" source="EClyNgpZT3kYvuIJdLgy-28" target="EClyNgpZT3kYvuIJdLgy-2" edge="1">
          <mxGeometry relative="1" as="geometry" />
        </mxCell>
        <mxCell id="EClyNgpZT3kYvuIJdLgy-28" value="" style="shape=corner;whiteSpace=wrap;html=1;rotation=-90;dx=103;dy=56;fillColor=#ffff88;strokeColor=#36393d;" parent="1" vertex="1">
          <mxGeometry x="420" y="-885.8" width="279.85" height="273.63" as="geometry" />
        </mxCell>
        <mxCell id="EClyNgpZT3kYvuIJdLgy-29" value="EasyUART" style="text;html=1;align=center;verticalAlign=middle;resizable=0;points=[];autosize=1;strokeColor=none;fillColor=none;fontStyle=1;fontSize=22;" parent="1" vertex="1">
          <mxGeometry x="495.0000000000001" y="-680" width="130" height="40" as="geometry" />
        </mxCell>
        <mxCell id="EClyNgpZT3kYvuIJdLgy-34" style="edgeStyle=orthogonalEdgeStyle;rounded=0;orthogonalLoop=1;jettySize=auto;html=1;entryX=0;entryY=0;entryDx=103;entryDy=164.815;entryPerimeter=0;endArrow=classic;endFill=1;startArrow=classic;startFill=1;" parent="1" source="EClyNgpZT3kYvuIJdLgy-4" target="EClyNgpZT3kYvuIJdLgy-28" edge="1">
          <mxGeometry relative="1" as="geometry">
            <Array as="points">
              <mxPoint x="587.37" y="-720" />
              <mxPoint x="588.37" y="-720" />
            </Array>
          </mxGeometry>
        </mxCell>
        <mxCell id="EClyNgpZT3kYvuIJdLgy-39" style="edgeStyle=orthogonalEdgeStyle;rounded=0;orthogonalLoop=1;jettySize=auto;html=1;exitX=1;exitY=0.5;exitDx=0;exitDy=0;entryX=0.5;entryY=0;entryDx=0;entryDy=0;entryPerimeter=0;" parent="1" source="EClyNgpZT3kYvuIJdLgy-9" target="EClyNgpZT3kYvuIJdLgy-28" edge="1">
          <mxGeometry relative="1" as="geometry" />
        </mxCell>
        <mxCell id="EClyNgpZT3kYvuIJdLgy-43" value="Code generation" style="edgeLabel;html=1;align=center;verticalAlign=middle;resizable=0;points=[];" parent="EClyNgpZT3kYvuIJdLgy-39" vertex="1" connectable="0">
          <mxGeometry x="-0.2157" y="-1" relative="1" as="geometry">
            <mxPoint x="9" y="-11" as="offset" />
          </mxGeometry>
        </mxCell>
        <mxCell id="FRTwz7g_rq9uTpnmj-ga-1" value="EasyUART GUI should allow to&lt;div&gt;1. Plot, log, view, etc. variables sent with the EasyUART protocol (Interface)&lt;/div&gt;&lt;div&gt;2. Create and edit databases&lt;/div&gt;&lt;div&gt;3. Generate code (select target to use appropiate drivers, update MCU database, set baud rate...)&lt;/div&gt;" style="text;html=1;align=left;verticalAlign=middle;resizable=0;points=[];autosize=1;strokeColor=none;fillColor=none;" parent="1" vertex="1">
          <mxGeometry x="60" y="-520" width="540" height="70" as="geometry" />
        </mxCell>
      </root>
    </mxGraphModel>
  </diagram>
  <diagram id="RuBhYvirBLvTK_i_IR_m" name="Protocol overview">
    <mxGraphModel dx="1434" dy="884" grid="1" gridSize="10" guides="1" tooltips="1" connect="1" arrows="1" fold="1" page="1" pageScale="1" pageWidth="827" pageHeight="1169" math="0" shadow="0">
      <root>
        <mxCell id="0" />
        <mxCell id="1" parent="0" />
        <mxCell id="HTvLRjlJIlVdalaXx3jo-36" value="Cross-Functional Flowchart" style="shape=table;childLayout=tableLayout;startSize=40;collapsible=0;recursiveResize=0;expand=0;fontSize=16;" vertex="1" parent="1">
          <mxGeometry x="210" y="250" width="400" height="280" as="geometry" />
        </mxCell>
        <mxCell id="HTvLRjlJIlVdalaXx3jo-37" value="Actor 1" style="shape=tableRow;horizontal=0;swimlaneHead=0;swimlaneBody=0;top=0;left=0;strokeColor=inherit;bottom=0;right=0;dropTarget=0;fontStyle=0;fillColor=none;points=[[0,0.5],[1,0.5]];portConstraint=eastwest;startSize=40;collapsible=0;recursiveResize=0;expand=0;fontSize=16;" vertex="1" parent="HTvLRjlJIlVdalaXx3jo-36">
          <mxGeometry y="40" width="400" height="120" as="geometry" />
        </mxCell>
        <mxCell id="HTvLRjlJIlVdalaXx3jo-38" value="Phase 1" style="swimlane;swimlaneHead=0;swimlaneBody=0;fontStyle=0;strokeColor=inherit;connectable=0;fillColor=none;startSize=40;collapsible=0;recursiveResize=0;expand=0;fontSize=16;" vertex="1" parent="HTvLRjlJIlVdalaXx3jo-37">
          <mxGeometry x="40" width="120" height="120" as="geometry">
            <mxRectangle width="120" height="120" as="alternateBounds" />
          </mxGeometry>
        </mxCell>
        <mxCell id="HTvLRjlJIlVdalaXx3jo-39" value="Phase 2" style="swimlane;swimlaneHead=0;swimlaneBody=0;fontStyle=0;strokeColor=inherit;connectable=0;fillColor=none;startSize=40;collapsible=0;recursiveResize=0;expand=0;fontSize=16;" vertex="1" parent="HTvLRjlJIlVdalaXx3jo-37">
          <mxGeometry x="160" width="120" height="120" as="geometry">
            <mxRectangle width="120" height="120" as="alternateBounds" />
          </mxGeometry>
        </mxCell>
        <mxCell id="HTvLRjlJIlVdalaXx3jo-40" value="Phase 3" style="swimlane;swimlaneHead=0;swimlaneBody=0;fontStyle=0;strokeColor=inherit;connectable=0;fillColor=none;startSize=40;collapsible=0;recursiveResize=0;expand=0;fontSize=16;" vertex="1" parent="HTvLRjlJIlVdalaXx3jo-37">
          <mxGeometry x="280" width="120" height="120" as="geometry">
            <mxRectangle width="120" height="120" as="alternateBounds" />
          </mxGeometry>
        </mxCell>
        <mxCell id="HTvLRjlJIlVdalaXx3jo-45" value="Actor 3" style="shape=tableRow;horizontal=0;swimlaneHead=0;swimlaneBody=0;top=0;left=0;strokeColor=inherit;bottom=0;right=0;dropTarget=0;fontStyle=0;fillColor=none;points=[[0,0.5],[1,0.5]];portConstraint=eastwest;startSize=40;collapsible=0;recursiveResize=0;expand=0;fontSize=16;" vertex="1" parent="HTvLRjlJIlVdalaXx3jo-36">
          <mxGeometry y="160" width="400" height="120" as="geometry" />
        </mxCell>
        <mxCell id="HTvLRjlJIlVdalaXx3jo-46" value="" style="swimlane;swimlaneHead=0;swimlaneBody=0;fontStyle=0;connectable=0;strokeColor=inherit;fillColor=none;startSize=0;collapsible=0;recursiveResize=0;expand=0;fontSize=16;" vertex="1" parent="HTvLRjlJIlVdalaXx3jo-45">
          <mxGeometry x="40" width="120" height="120" as="geometry">
            <mxRectangle width="120" height="120" as="alternateBounds" />
          </mxGeometry>
        </mxCell>
        <mxCell id="HTvLRjlJIlVdalaXx3jo-47" value="" style="swimlane;swimlaneHead=0;swimlaneBody=0;fontStyle=0;connectable=0;strokeColor=inherit;fillColor=none;startSize=0;collapsible=0;recursiveResize=0;expand=0;fontSize=16;" vertex="1" parent="HTvLRjlJIlVdalaXx3jo-45">
          <mxGeometry x="160" width="120" height="120" as="geometry">
            <mxRectangle width="120" height="120" as="alternateBounds" />
          </mxGeometry>
        </mxCell>
        <mxCell id="HTvLRjlJIlVdalaXx3jo-48" value="" style="swimlane;swimlaneHead=0;swimlaneBody=0;fontStyle=0;connectable=0;strokeColor=inherit;fillColor=none;startSize=0;collapsible=0;recursiveResize=0;expand=0;fontSize=16;" vertex="1" parent="HTvLRjlJIlVdalaXx3jo-45">
          <mxGeometry x="280" width="120" height="120" as="geometry">
            <mxRectangle width="120" height="120" as="alternateBounds" />
          </mxGeometry>
        </mxCell>
      </root>
    </mxGraphModel>
  </diagram>
</mxfile>
